External Loads File
version=1
nRows=31
nColumns=13
Range=5.000000e-03-10 seconds
endheader
time 	forceRightX 	forceRightY 	forceRightZ 	pointRightX 	pointRightY 	pointRightZ 	forceLeftX 	forceLeftY 	forceLeftZ 	pointLeftX 	pointLeftY 	pointLeftZ 		
5.005000 42.878102 -53.160774 -0.000000 0.128883 0.420280 -0.098873 -46.402751 756.398363 -0.000000 0.336854 0.228481 -0.339820
5.010000 26.658954 -57.150151 -0.000000 0.135532 0.429591 -0.099164 -7.836963 745.492566 -0.000000 0.330712 0.219880 -0.339960
5.015000 10.713742 -60.502259 -0.000000 0.142623 0.438347 -0.099489 28.882496 728.967600 -0.000000 0.324350 0.211652 -0.339884
5.020000 -4.635659 -63.277676 -0.000000 0.150135 0.446756 -0.099840 63.068005 707.157312 -0.000000 0.317642 0.203958 -0.339762
5.025000 -19.049303 -65.512591 -0.000000 0.158116 0.454658 -0.100179 93.830146 680.520303 -0.000000 0.310607 0.196773 -0.339674
5.030000 -32.290643 -67.177829 -0.000000 0.166954 0.462036 -0.100112 121.434203 649.552455 -0.000000 0.303317 0.189922 -0.339578
5.035000 -43.863249 -68.351886 -0.000000 0.175783 0.468722 -0.100314 143.563916 615.502917 -0.000000 0.295720 0.183683 -0.339581
5.040000 -53.552819 -69.071000 -0.000000 0.184487 0.474947 -0.100467 160.361245 579.633226 -0.000000 0.287866 0.178051 -0.339568
5.045000 -61.405221 -69.214318 -0.000000 0.193345 0.480772 -0.101054 173.263961 543.043527 -0.000000 0.279557 0.172969 -0.339620
5.050000 -67.489080 -68.626604 -0.000000 0.202620 0.485791 -0.101242 182.965796 507.101848 -0.000000 0.270949 0.168555 -0.339558
5.055000 -71.913525 -67.057017 -0.000000 0.211889 0.490267 -0.101513 190.104830 473.199363 -0.000000 0.261936 0.164722 -0.339519
5.060000 -74.868187 -64.034685 -0.000000 0.221437 0.494116 -0.101855 195.927433 442.244023 -0.000000 0.252592 0.161555 -0.339366
5.065000 -76.375390 -59.125857 -0.000000 0.230917 0.497249 -0.101999 200.753516 415.040049 -0.000000 0.242988 0.159152 -0.339171
5.070000 -76.507146 -51.767119 -0.000000 0.240444 0.499664 -0.102148 205.468989 391.543749 -0.000000 0.233124 0.157238 -0.338973
5.075000 -75.200880 -41.613454 -0.000000 0.249762 0.501326 -0.102174 209.958124 371.570048 -0.000000 0.223207 0.156121 -0.338772
5.080000 -72.519956 -28.281482 -0.000000 0.259183 0.502319 -0.102313 214.728278 353.989968 -0.000000 0.213186 0.155579 -0.338978
5.085000 -68.493894 -11.681025 -0.000000 0.268571 0.502570 -0.102420 219.320837 337.649397 -0.000000 0.203162 0.155733 -0.338871
5.090000 -63.253713 8.132458 -0.000000 0.277992 0.501947 -0.102439 223.075773 321.147283 -0.000000 0.193428 0.156575 -0.338653
5.095000 -57.045262 30.898034 -0.000000 0.286897 0.500708 -0.102477 224.953374 303.279833 -0.000000 0.183923 0.158442 -0.338124
5.100000 -50.177333 56.271955 -0.000000 0.295519 0.498826 -0.102547 224.398949 282.852652 -0.000000 0.174647 0.160926 -0.337632
5.105000 -43.083068 83.701934 -0.000000 0.303703 0.496131 -0.102617 220.575740 259.597908 -0.000000 0.165823 0.163828 -0.337294
5.110000 -36.247279 112.730885 -0.000000 0.311339 0.492838 -0.102566 213.309795 233.636434 -0.000000 0.157385 0.167516 -0.337140
5.115000 -30.096964 143.098722 -0.000000 0.318657 0.488616 -0.102480 202.961954 205.470826 -0.000000 0.149439 0.171983 -0.336742
5.120000 -25.121486 174.709753 -0.000000 0.325704 0.483642 -0.102111 190.029449 176.157360 -0.000000 0.141927 0.176989 -0.336586
5.125000 -21.941042 207.583417 -0.000000 0.332267 0.478022 -0.101748 175.198502 147.030938 -0.000000 0.134843 0.182319 -0.336518
5.130000 -20.663935 241.819148 -0.000000 0.338399 0.471492 -0.101375 159.685713 118.939054 -0.000000 0.128047 0.188224 -0.336461
5.135000 -21.627274 277.380160 -0.000000 0.344263 0.464330 -0.100880 144.372332 92.889294 -0.000000 0.121664 0.194547 -0.336361
5.140000 -24.792726 314.053106 -0.000000 0.349777 0.456401 -0.100839 130.099300 69.494857 -0.000000 0.115622 0.201404 -0.336308
5.145000 -30.292852 351.344755 -0.000000 0.354943 0.447870 -0.100443 117.361189 49.309209 -0.000000 0.109994 0.208644 -0.336291
5.150000 -38.154215 388.507212 -0.000000 0.359720 0.438734 -0.100133 106.497523 32.671581 -0.000000 0.104817 0.216015 -0.336235
5.155000 -46.645379 424.776933 -0.000000 0.364228 0.428417 -0.099939 97.837367 19.377630 -0.000000 0.100047 0.224158 -0.336199
